<svg width="18" height="18" viewBox="0 0 18 18" fill="none" xmlns="http://www.w3.org/2000/svg">
<path d="M6.4082 8.97505C6.95487 10.104 7.86773 11.0145 8.99805 11.5583C9.08142 11.5977 9.17364 11.6148 9.26563 11.6078C9.35762 11.6008 9.4462 11.57 9.52266 11.5184L11.1828 10.4094C11.2562 10.3597 11.3409 10.3293 11.4292 10.3212C11.5174 10.3131 11.6063 10.3274 11.6875 10.3629L14.7953 11.6977C14.9015 11.7419 14.9903 11.8198 15.0479 11.9194C15.1055 12.019 15.1287 12.1348 15.1141 12.2489C15.0156 13.0177 14.6403 13.7243 14.0585 14.2364C13.4767 14.7485 12.7282 15.0311 11.9531 15.0313C9.55789 15.0313 7.26076 14.0798 5.56707 12.3861C3.87338 10.6924 2.92188 8.39529 2.92188 6.00005C2.92205 5.22496 3.20464 4.47648 3.71677 3.89468C4.22891 3.31288 4.93549 2.93762 5.7043 2.83911C5.81841 2.82446 5.93417 2.84772 6.03377 2.90531C6.13336 2.96291 6.21126 3.05165 6.25547 3.15786L7.59023 6.27232C7.62494 6.35224 7.63947 6.43947 7.63252 6.52632C7.62557 6.61317 7.59736 6.69698 7.55039 6.77036L6.44141 8.45708C6.39203 8.53337 6.36306 8.62105 6.35724 8.71174C6.35143 8.80242 6.36898 8.89308 6.4082 8.97505Z" fill="#DADDDE" stroke="#505C69" stroke-width="0.796875" stroke-linecap="round" stroke-linejoin="round"/>
</svg>
