<svg width="18" height="18" viewBox="0 0 18 18" fill="none" xmlns="http://www.w3.org/2000/svg">
<path d="M2.53003 10.1715C1.93461 9.16837 1.7259 7.98234 1.94312 6.83618C2.16034 5.69003 2.78854 4.66261 3.70973 3.94688C4.63092 3.23116 5.78172 2.87637 6.946 2.94915C8.11029 3.02194 9.20795 3.51729 10.0328 4.34217C10.8577 5.16705 11.3531 6.2647 11.4258 7.42899C11.4986 8.59327 11.1438 9.74407 10.4281 10.6653C9.71238 11.5865 8.68496 12.2147 7.53881 12.4319C6.39266 12.6491 5.20663 12.4404 4.20347 11.845L2.54995 12.3164C2.48183 12.3356 2.40982 12.3363 2.34136 12.3184C2.27289 12.3005 2.21042 12.2647 2.16038 12.2146C2.11033 12.1646 2.07452 12.1021 2.05663 12.0336C2.03873 11.9652 2.03939 11.8932 2.05855 11.825L2.53003 10.1715Z" fill="#DADDDE" stroke="#4E5A67" stroke-width="0.53125" stroke-linecap="round" stroke-linejoin="round"/>
<path d="M6.38159 12.5089C6.61564 13.1762 6.99498 13.7832 7.49221 14.286C7.98944 14.7888 8.59215 15.1749 9.25679 15.4163C9.92143 15.6578 10.6314 15.7486 11.3354 15.6822C12.0394 15.6158 12.7199 15.3938 13.3277 15.0324L14.9812 15.5039C15.0493 15.523 15.1213 15.5237 15.1898 15.5058C15.2583 15.4879 15.3207 15.4521 15.3708 15.402C15.4208 15.352 15.4566 15.2895 15.4745 15.2211C15.4924 15.1526 15.4918 15.0806 15.4726 15.0125L15.0011 13.3589C15.422 12.6524 15.6533 11.8491 15.6726 11.0269C15.6918 10.2047 15.4983 9.39143 15.1109 8.66597C14.7234 7.94052 14.1551 7.32744 13.4611 6.88615C12.7671 6.44487 11.9709 6.19033 11.1496 6.14722" stroke="#505C69" stroke-width="0.53125" stroke-linecap="round" stroke-linejoin="round"/>
</svg>
