<svg width="18" height="18" viewBox="0 0 18 18" fill="none" xmlns="http://www.w3.org/2000/svg">
<path opacity="0.2" d="M8.89844 11.0566C11.2823 11.0566 13.2148 9.12412 13.2148 6.74023C13.2148 4.35635 11.2823 2.42383 8.89844 2.42383C6.51455 2.42383 4.58203 4.35635 4.58203 6.74023C4.58203 9.12412 6.51455 11.0566 8.89844 11.0566Z" fill="#465361"/>
<path d="M8.89844 11.0566C11.2823 11.0566 13.2148 9.12412 13.2148 6.74023C13.2148 4.35635 11.2823 2.42383 8.89844 2.42383C6.51455 2.42383 4.58203 4.35635 4.58203 6.74023C4.58203 9.12412 6.51455 11.0566 8.89844 11.0566Z" stroke="#465361" stroke-width="0.639468" stroke-miterlimit="10"/>
<path d="M2.35645 14.8335C3.01938 13.685 3.97296 12.7313 5.12134 12.0682C6.26972 11.4051 7.57243 11.056 8.8985 11.056C10.2246 11.056 11.5273 11.4051 12.6757 12.0682C13.824 12.7313 14.7776 13.685 15.4406 14.8335" stroke="#465361" stroke-width="0.639468" stroke-linecap="round" stroke-linejoin="round"/>
</svg>
